<svg xmlns="http://www.w3.org/2000/svg" viewBox="0 0 241.71 241.71"><title>Asset 88</title><g id="Layer_2" data-name="Layer 2"><g id="Layer_1-2" data-name="Layer 1"><rect width="241.71" height="241.71" rx="19.59" fill="#38b1e1"/><path d="M179.2,65.49s-52.3-34.35-61.26,30.82c0,0-30.68,6.56-72.11-34.86,0,0-16.17,26,9.6,46.36l-14.61-4.43s.46,29.81,26.23,34.35H53.91s0,19.71,29.81,24.25c0,0-3,13.64-48.5,15.16,0,0,46,38.4,109.12,0,0,0,45.47-31.83,44.46-86.39l17.68-19.2L187.29,76.1s11.62-8,13.64-19.66C200.93,56.44,186.78,66,179.2,65.49Z" fill="#fff"/></g></g></svg>